<svg xmlns="http://www.w3.org/2000/svg" style="display:none" id="owl-svg"><symbol id="checkbox" viewBox="0 0 18 19"><title>icon/18/checkbox</title><rect stroke="#979797" x="2" y="2" width="13.5" height="13.5" rx="3" fill-rule="evenodd"/></symbol><symbol id="checked" viewBox="0 0 18 19"><title>icon/18/checked</title><g fill-rule="evenodd"><rect stroke="#979797" x="2" y="2" width="13.5" height="13.5" rx="3"/><path d="M7.144 9.917L4.8 7.585l-.8.79L7.144 11.5l6.75-6.71L13.1 4 7.145 9.917z"/></g></symbol><symbol id="close" viewBox="0 0 18 18"><title>Icon/18/close</title><path d="M14.25 4.808L13.193 3.75 9 7.942 4.808 3.75 3.75 4.808 7.942 9 3.75 13.193l1.058 1.057L9 10.057l4.193 4.193 1.057-1.057L10.057 9l4.193-4.192z" fill-rule="evenodd"/></symbol><symbol id="delete" viewBox="0 0 18 19"><title>icon/18/delete</title><path d="M4.917 14.89c0 .467.687 1.11 1.146 1.11h6.875c.458 0 1.145-.643 1.145-1.11V6H4.917v8.89zM15 3.464h-2.444L11.333 2H7.667L6.444 3.465H4V4.93h11V3.465z" fill-rule="evenodd"/></symbol><symbol id="duplicate" viewBox="0 0 18 18"><title>icon/18/duplicate</title><path d="M13.667 4H6.333C5.6 4 5 4.6 5 5.333v9.334C5 15.4 5.6 16 6.333 16h7.334C14.4 16 15 15.4 15 14.667V5.333C15 4.6 14.4 4 13.667 4zM6 5h8v10H6V5zm-1.966 8.966A1.34 1.34 0 0 1 3 12.666V3.334C3 2.6 3.6 2 4.333 2h7.334c.63 0 1.162.444 1.3 1.034a1.325 1.325 0 0 0-.3-.034H4v10.667c0 .102.012.203.034.3z" fill-rule="evenodd"/></symbol><symbol id="edit" viewBox="0 0 18 18"><title>icon/18/edit</title><path d="M2.25 12.938v2.812h2.812l8.294-8.294-2.812-2.812-8.294 8.294zM15.53 5.28a.747.747 0 0 0 0-1.056L13.777 2.47a.747.747 0 0 0-1.057 0L11.345 3.84l2.812 2.812L15.53 5.28z" fill-rule="evenodd"/></symbol><symbol id="enlarge" viewBox="0 0 18 18"><title>icon/18/enlarge</title><path d="M11.657 9.97h-.597l-.212-.195a4.496 4.496 0 0 0 1.187-3.03c0-2.572-2.2-4.657-4.915-4.657S2.204 4.173 2.204 6.745s2.2 4.657 4.916 4.657a5.056 5.056 0 0 0 3.198-1.125l.205.2v.566l3.78 3.575 1.127-1.067-3.773-3.58zm-4.537 0c-1.883 0-3.403-1.44-3.403-3.225 0-1.784 1.52-3.224 3.403-3.224s3.403 1.44 3.403 3.225c0 1.784-1.52 3.224-3.403 3.224zm-.65-3.705H4.41V7.34h2.06v1.535h1.42V7.34h2.03V6.265H7.89V4.7H6.47v1.565z" fill-rule="evenodd"/></symbol><symbol id="grid-1" viewBox="0 0 18 19"><title>icon/18/grid-1</title><path d="M1 1h16v16H1z" fill-rule="evenodd"/></symbol><symbol id="grid-16" viewBox="0 0 18 19"><title>icon/18/grid-16</title><path d="M1 9.89h3.667v3.666H1V9.89zm4.444 0H9.11v3.666H5.445V9.89zm4.445 0h3.666v3.666H9.89V9.89zm4.443 0H18v3.666h-3.667V9.89zM1 14.332h3.667V18H1v-3.667zm4.444 0H9.11V18H5.445v-3.667zm4.445 0h3.666V18H9.89v-3.667zm4.443 0H18V18h-3.667v-3.667zM1 5.443h3.667v3.668H1V5.445zm4.444 0H9.11v3.668H5.445V5.445zm4.445 0h3.666v3.668H9.89V5.445zm4.443 0H18v3.668h-3.667V5.445zM1 1h3.667v3.667H1V1zm4.444 0H9.11v3.667H5.445V1zM9.89 1h3.666v3.667H9.89V1zm4.443 0H18v3.667h-3.667V1z" fill-rule="evenodd"/></symbol><symbol id="grid-4" viewBox="0 0 18 19"><title>icon/18/grid-4</title><path d="M1 1h7.556v7.55H1V1zm0 9.444h7.556v7.552H1v-7.552zM10.444 1H18v7.55h-7.556V1zm0 9.444H18v7.552h-7.556v-7.552z" fill-rule="evenodd"/></symbol><symbol id="grid-9" viewBox="0 0 18 19"><title>icon/18/grid-9</title><path d="M1 13h5v4.86H1V13zm0-6h5v4.86H1V7zm0-6h5v4.86H1V1zm6 12h5v4.86H7V13zm0-6h5v4.86H7V7zm0-6h5v4.86H7V1zm6 12h5v4.86h-5V13zm0-6h5v4.86h-5V7zm0-6h5v4.86h-5V1z" fill-rule="evenodd"/></symbol><symbol id="legend" viewBox="0 0 18 18"><title>icon/18/legend</title><path d="M2.94 7.715a1.1 1.1 0 0 0-1.103 1.102A1.1 1.1 0 0 0 2.94 9.92a1.1 1.1 0 0 0 1.1-1.103 1.1 1.1 0 0 0-1.1-1.102zm0-4.408A1.1 1.1 0 0 0 1.836 4.41a1.1 1.1 0 0 0 1.102 1.1 1.1 1.1 0 0 0 1.1-1.1 1.1 1.1 0 0 0-1.1-1.103zm0 8.942a.977.977 0 1 0-.002 1.952.977.977 0 0 0 0-1.953zm2.203 1.71H15.43v-1.47H5.143v1.47zm0-4.408H15.43v-1.47H5.143v1.47zm0-5.878v1.47H15.43v-1.47H5.143z" fill-rule="evenodd"/></symbol><symbol id="minimize" viewBox="0 0 18 18"><title>icon/18/minimize</title><path d="M11.657 10.523h-.597l-.212-.205a4.894 4.894 0 0 0 1.187-3.198 4.915 4.915 0 1 0-4.915 4.915 4.894 4.894 0 0 0 3.198-1.187l.205.212v.597l3.78 3.773 1.127-1.126-3.773-3.78zm-4.537 0A3.398 3.398 0 0 1 3.717 7.12 3.398 3.398 0 0 1 7.12 3.717a3.398 3.398 0 0 1 3.403 3.403 3.398 3.398 0 0 1-3.403 3.403zm-2.16-3.91h4.408v1.134H4.96V6.613z" fill-rule="evenodd"/></symbol><symbol id="plus" viewBox="0 0 18 18"><title>Icon/18/plus</title><path d="M14.76 10.152H10.15v4.607H7.848V10.15H3.24V7.848H7.85V3.24h2.304V7.85h4.607v2.304z" fill-rule="evenodd"/></symbol><symbol id="sort" viewBox="0 0 18 18"><title>icon/18/sort</title><path d="M9.5 3L13 8H6l3.5-5zM6 11h7l-3.5 5L6 11z" fill-rule="evenodd"/></symbol><symbol id="sum" viewBox="0 0 18 18"><title>icon/18/sum</title><path d="M13.226 3.307H4.41v1.47l4.775 4.408-4.776 4.408v1.47h8.816V12.86H8.083l3.673-3.675L8.083 5.51h5.143V3.308z" fill-rule="evenodd"/></symbol><symbol id="triangle" viewBox="0 0 18 18"><title>icon/18/triangle</title><path d="M3 6l5 5 5-5H3z" fill-rule="evenodd"/></symbol><symbol id="add" viewBox="0 0 24 24"><title>icon/24/add</title><path d="M19.68 13.536h-6.144v6.143h-3.072v-6.144H4.32v-3.072h6.144V4.32h3.072v6.144h6.143v3.072z" fill-rule="evenodd"/></symbol><symbol id="alarm" viewBox="0 0 24 24"><title>icon/24/alarm</title><path d="M10.842 18.842a1.657 1.657 0 0 0 3.316 0h-3.316zm7.39-8.342a5.728 5.728 0 0 0-4.407-5.575v-.6C13.825 3.592 13.233 3 12.5 3s-1.325.592-1.325 1.325v.6A5.728 5.728 0 0 0 6.767 10.5v4.85L5 17.117V18h15v-.883l-1.767-1.767V10.5z" fill-rule="evenodd"/></symbol><symbol id="board" viewBox="0 0 24 24"><title>icon/24/board</title><path d="M4.608 5h13.824c.95 0 1.72.81 1.72 1.8l.008 10.8c0 .99-.778 1.8-1.728 1.8H4.608c-.95 0-1.728-.81-1.728-1.8V6.8c0-.99.778-1.8 1.728-1.8zm4.32 12.6h9.504V14H8.928v3.6zm0-4.5h9.504V9.5H8.928v3.6zm-4.32 4.5h3.456V9.5H4.608v8.1z" fill-rule="evenodd"/></symbol><symbol id="check" viewBox="0 0 24 24"><title>icon/24/check</title><path d="M18 7l-1.41-1.41-6.34 6.34 1.41 1.41L18 7zm4.24-1.41L11.66 16.17 7.48 12l-1.41 1.41L11.66 19l12-12-1.42-1.41zM.41 13.41L6 19l1.41-1.41L1.83 12 .41 13.41z" fill-rule="evenodd"/></symbol><symbol id="down" viewBox="0 0 24 24"><title>icon/24/down</title><path d="M11.406 16.594l.594.595.594-.596L21 8.19 19.81 7l-8.404 8.406h1.188L4.19 7 3 8.19l8.406 8.404z" fill-rule="evenodd"/></symbol><symbol id="graph" viewBox="0 0 24 24"><title>icon/24/graph</title><path d="M19 3H5c-1.1 0-2 .9-2 2v14c0 1.1.9 2 2 2h14c1.1 0 2-.9 2-2V5c0-1.1-.9-2-2-2zM9 17H7v-7h2v7zm4 0h-2V7h2v10zm4 0h-2v-4h2v4z" fill-rule="evenodd"/></symbol><symbol id="more" viewBox="0 0 24 24"><title>icon/24/more</title><path d="M12 8c1.1 0 2-.9 2-2s-.9-2-2-2-2 .9-2 2 .9 2 2 2zm0 2c-1.1 0-2 .9-2 2s.9 2 2 2 2-.9 2-2-.9-2-2-2zm0 6c-1.1 0-2 .9-2 2s.9 2 2 2 2-.9 2-2-.9-2-2-2z" fill-rule="evenodd"/></symbol><symbol id="search" viewBox="0 0 24 24"><title>icon/24/search</title><path d="M15.507 14.006h-.79l-.28-.27a6.475 6.475 0 0 0 1.57-4.232 6.504 6.504 0 1 0-6.503 6.503c1.61 0 3.09-.59 4.232-1.57l.27.28v.79L19.01 20.5l1.49-1.49-4.993-5.004zm-6.003 0A4.497 4.497 0 0 1 5 9.504C5 7.012 7.013 5 9.505 5c2.49 0 4.502 2.012 4.502 4.504 0 2.49-2.01 4.502-4.502 4.502z" fill-rule="evenodd"/></symbol><symbol id="settings" viewBox="0 0 24 24"><title>icon/24/settings</title><path d="M18.113 13.03a6.41 6.41 0 0 0 .057-.806c0-.28-.025-.542-.057-.806l1.735-1.357a.415.415 0 0 0 .1-.525L18.3 6.69a.413.413 0 0 0-.502-.182l-2.048.823a6.01 6.01 0 0 0-1.39-.805l-.312-2.18A.4.4 0 0 0 13.647 4h-3.29a.4.4 0 0 0-.403.345l-.313 2.18a6.32 6.32 0 0 0-1.39.806L6.205 6.51a.4.4 0 0 0-.502.18L4.057 9.536a.405.405 0 0 0 .1.526L5.89 11.42a6.522 6.522 0 0 0-.057.806c0 .272.025.543.058.806l-1.734 1.357a.415.415 0 0 0-.1.527l1.646 2.845c.1.18.32.246.502.18l2.047-.822c.43.33.89.6 1.39.806l.314 2.18a.4.4 0 0 0 .403.345h3.29a.4.4 0 0 0 .403-.347l.312-2.18a6.32 6.32 0 0 0 1.39-.805l2.048.822a.4.4 0 0 0 .502-.18l1.645-2.846a.415.415 0 0 0-.1-.527l-1.734-1.357zm-6.11 2.073a2.882 2.882 0 0 1-2.88-2.88c0-1.586 1.292-2.877 2.88-2.877 1.586 0 2.877 1.29 2.877 2.878s-1.29 2.88-2.878 2.88z" fill-rule="evenodd"/></symbol><symbol id="up" viewBox="0 0 24 24"><title>icon/24/up</title><path d="M11.406 7.406L12 6.81l.594.596L21 15.81 19.81 17l-8.404-8.406h1.188L4.19 17 3 15.81l8.406-8.404z" fill-rule="evenodd"/></symbol><symbol id="eye" viewBox="0 0 28 28"><title>icon/28/eye</title><path d="M14 5.25C8.167 5.25 3.185 8.878 1.167 14c2.018 5.122 7 8.75 12.833 8.75S24.815 19.122 26.833 14c-2.018-5.122-7-8.75-12.833-8.75zm0 14.583A5.835 5.835 0 0 1 8.167 14 5.835 5.835 0 0 1 14 8.167 5.835 5.835 0 0 1 19.833 14 5.835 5.835 0 0 1 14 19.833zm0-9.333a3.495 3.495 0 0 0-3.5 3.5c0 1.937 1.563 3.5 3.5 3.5s3.5-1.563 3.5-3.5-1.563-3.5-3.5-3.5z" fill-rule="evenodd"/></symbol><symbol id="fold" viewBox="0 0 28 28"><title>icon/28/fold</title><path d="M17.978 8.645L16.333 7l-7 7 7 7 1.645-1.645L12.635 14l5.343-5.355z" fill-rule="evenodd"/></symbol><symbol id="hg" viewBox="0 0 28 28"><title>icon/28/hg</title><path d="M2.333 23.333h23.334v-4.666H2.333v4.666zm2.334-3.5H7v2.334H4.667v-2.334zM2.333 4.667v4.666h23.334V4.667H2.333zM7 8.167H4.667V5.833H7v2.334zm-4.667 8.166h23.334v-4.666H2.333v4.666zm2.334-3.5H7v2.334H4.667v-2.334z" fill-rule="evenodd"/></symbol><symbol id="userg" viewBox="0 0 28 28"><title>icon/28/userg</title><path d="M18.667 12.833a3.485 3.485 0 0 0 3.488-3.5c0-1.936-1.552-3.5-3.488-3.5a3.495 3.495 0 0 0-3.5 3.5c0 1.937 1.563 3.5 3.5 3.5zm-9.334 0a3.485 3.485 0 0 0 3.49-3.5c0-1.936-1.553-3.5-3.49-3.5a3.495 3.495 0 0 0-3.5 3.5c0 1.937 1.564 3.5 3.5 3.5zm0 2.334c-2.718 0-8.166 1.365-8.166 4.083v2.917H17.5V19.25c0-2.718-5.448-4.083-8.167-4.083zm9.334 0c-.34 0-.724.023-1.132.058 1.353.98 2.298 2.298 2.298 4.025v2.917h7V19.25c0-2.718-5.448-4.083-8.166-4.083z" fill-rule="evenodd"/></symbol><symbol id="level-1" viewBox="0 0 40 40"><title>icon/40/level-1</title><path d="M0 0h40v40H0z" fill-rule="evenodd"/></symbol><symbol id="level-2" viewBox="0 0 40 40"><title>icon/40/level-2</title><g fill-rule="evenodd"><path d="M40 0v40H0L40 0z"/><path d="M0 0h40v40H0z"/><path d="M0 40V0h40L0 40z" stroke="#E31B33"/></g></symbol><symbol id="level-3" viewBox="0 0 40 40"><title>icon/40/level-3</title><path d="M0 0h40v40H0z" fill-rule="evenodd"/></symbol><symbol id="level-4" viewBox="0 0 40 40"><title>icon/40/level-4</title><g fill-rule="evenodd"><path d="M40 0v40H0L40 0z"/><path d="M0 0h40v40H0z"/><path d="M0 40V0h40L0 40z" stroke="#FF8C1A"/></g></symbol><symbol id="level-5" viewBox="0 0 40 40"><title>icon/40/level-5</title><path d="M0 0h40v40H0z" fill-rule="evenodd"/></symbol><symbol id="level-6" viewBox="0 0 40 40"><title>icon/40/level-6</title><g fill-rule="evenodd"><path d="M40 0v40H0L40 0z"/><path d="M0 0h40v40H0z"/><path d="M0 40V0h40L0 40z" stroke="#FFD919"/></g></symbol><symbol id="switch-off" viewBox="0 0 40 40"><title>icon/40/switch-off</title><g fill-rule="evenodd"><rect x="5" y="13" width="30" height="14" rx="16"/><rect x="5" y="13" width="14" height="14" rx="7"/></g></symbol><symbol id="switch-on" viewBox="0 0 40 40"><title>icon/40/switch-on</title><g fill-rule="evenodd"><rect x="5" y="13" width="30" height="14" rx="16"/><rect x="21" y="13" width="14" height="14" rx="16"/></g></symbol></svg>