<svg xmlns="http://www.w3.org/2000/svg" xmlns:xlink="http://www.w3.org/1999/xlink" style="display:none" id="owl-svg"><defs><ellipse id="a" cx="15" cy="15" rx="15" ry="15"/></defs><symbol id="brand-circle" viewBox="0 0 36 36"><title>icon/36/brand-circle</title><g transform="translate(3 3)" fill="none" fill-rule="evenodd"><mask id="b" fill="#fff"><use xlink:href="#a"/></mask><use fill="#FFF" xlink:href="#a"/><g mask="url(#b)" fill="#383387"><path d="M17.352 7.312c.602-.05 1.128.37 1.175.942.048.57-.402 1.074-1.004 1.125-.602.05-1.128-.373-1.175-.943-.048-.57.402-1.075 1.004-1.125m.26 3.122c1.22-.13 2.093-1.11 2.027-2.273-.123-1.114-1.155-2.034-2.376-1.903-1.175.126-2.154 1.115-2.028 2.273.12 1.114 1.154 2.034 2.375 1.904M17 16.205c-.6.05-1.122-.37-1.17-.937-.047-.568.4-1.068 1-1.12.598-.05 1.12.37 1.168.94.047.566-.4 1.067-1 1.117m-.256-3.105c-1.17.126-2.143 1.11-2.017 2.26.12 1.11 1.148 2.024 2.36 1.894 1.215-.13 2.085-1.104 2.02-2.26-.122-1.11-1.15-2.024-2.363-1.894M24.38 9.518a3.957 3.957 0 0 0-.02-.073l-.037-.114a9.096 9.096 0 0 0-.462-1.15l-2.53 3.898 2.232 4.7a9.2 9.2 0 0 0 1.183-3.86 9.28 9.28 0 0 0-.364-3.4"/><path d="M13.996 10.223l1.037 1.375-1.235 1.208-1.554-1.42 1.752-1.163zm3.192-4.88c1.758-.106 3.233 1.077 3.414 2.737.092 1.606-1.158 3.16-2.915 3.267-1.693.102-3.32-1.07-3.415-2.736-.09-1.605 1.16-3.16 2.916-3.266zm-.025 12.836c-1.693.1-3.32-1.07-3.414-2.738-.092-1.606 1.158-3.16 2.915-3.267 1.758-.106 3.233 1.077 3.414 2.737.09 1.606-1.16 3.16-2.917 3.267zm-9.778-5.196c.01.12.02.24.033.357l.007.06c.19 1.692.722 3.383 1.76 4.755 1.306 1.726 3.397 2.772 5.59 2.99a8.425 8.425 0 0 0 2.54-.003c2.34-.36 4.405-1.694 5.766-3.612l-2.613-5.518 2.974-4.597c-.022-.038-.047-.075-.07-.113a9.142 9.142 0 0 0-.56-.796c-.042-.05-.082-.103-.124-.153-1.444-1.74-3.53-2.912-5.92-3.1-4.793-.378-8.993 3.336-9.38 8.297-.036.46-.038.914-.007 1.36 0 .025.003.05.005.074z"/><path d="M17.538 22.202a9.445 9.445 0 0 1-2.845.003 9.736 9.736 0 0 1-2.098-.448c-.49 1.555-.485 3.3-.047 4.846.633 2.243 1.678 4.167 3.364 5.73.45.418.92.813 1.39 1.208.784.664 2.41 1.51 2.41 1.51.02.01.072 0 .136-.025.762-.71 1.45-1.48 2.056-2.304 1.743-2.506 2.72-5.62 2.59-8.955a14.81 14.81 0 0 0-1.037-4.92c-1.504 1.778-3.59 2.998-5.92 3.357"/><path d="M17.125 34.69c-.546-.46-1.095-.922-1.62-1.41-1.968-1.823-3.186-4.067-3.926-6.683-.475-1.678-.515-3.555-.057-5.268-1.21-.576-2.284-1.408-3.09-2.473-1.16-1.536-1.757-3.43-1.97-5.324l-.007-.066a10.357 10.357 0 0 1-.045-.482 10.513 10.513 0 0 1 .192-2.814C4.72 12.79 3.6 16.057 3.6 19.6c0 6.333 3.57 11.784 8.702 14.228 1.8.715 3.643 1.162 5.348 1.354l.163.018-.018-.013a8.034 8.034 0 0 1-.67-.497"/></g></g></symbol><symbol id="checked" viewBox="0 0 18 19"><title>icon/40/checked</title><g fill="none" fill-rule="evenodd"><rect stroke="#979797" fill="#5E5555" x="2" y="2" width="13.5" height="13.5" rx="3"/><path d="M7.144 9.917L4.8 7.585l-.8.79L7.144 11.5l6.75-6.71L13.1 4 7.145 9.917z" fill="#FFF"/></g></symbol><symbol id="add" viewBox="0 0 24 24"><title>icon/24/icon-add</title><path d="M19.68 13.536h-6.144v6.143h-3.072v-6.144H4.32v-3.072h6.144V4.32h3.072v6.144h6.143v3.072z" fill-rule="evenodd"/></symbol><symbol id="alarm" viewBox="0 0 24 24"><title>icon/24/icon-alarm</title><path d="M10.842 18.842a1.657 1.657 0 0 0 3.316 0h-3.316zm7.39-8.342a5.728 5.728 0 0 0-4.407-5.575v-.6C13.825 3.592 13.233 3 12.5 3s-1.325.592-1.325 1.325v.6A5.728 5.728 0 0 0 6.767 10.5v4.85L5 17.117V18h15v-.883l-1.767-1.767V10.5z" fill-rule="evenodd"/></symbol><symbol id="board" viewBox="0 0 24 24"><title>icon/24/icon-board</title><path d="M4.608 5h13.824c.95 0 1.72.81 1.72 1.8l.008 10.8c0 .99-.778 1.8-1.728 1.8H4.608c-.95 0-1.728-.81-1.728-1.8V6.8c0-.99.778-1.8 1.728-1.8zm4.32 12.6h9.504V14H8.928v3.6zm0-4.5h9.504V9.5H8.928v3.6zm-4.32 4.5h3.456V9.5H4.608v8.1z" fill-rule="evenodd"/></symbol><symbol id="check-circle" viewBox="0 0 20 20"><title>icon/20/icon-check-circle</title><path d="M10 2a8 8 0 1 0 0 16 8 8 0 0 0 0-16zm-.457 10.498a.724.724 0 0 1-1.003 0l-1.875-1.823a.86.86 0 0 1 0-1.242l.013-.013a.92.92 0 0 1 1.276 0l1.087 1.06 3.007-2.923a.92.92 0 0 1 1.276 0l.013.013a.86.86 0 0 1 0 1.24l-3.793 3.688z" fill-rule="evenodd"/></symbol><symbol id="check" viewBox="0 0 24 24"><title>icon/24/icon-check</title><path d="M18 7l-1.41-1.41-6.34 6.34 1.41 1.41L18 7zm4.24-1.41L11.66 16.17 7.48 12l-1.41 1.41L11.66 19l12-12-1.42-1.41zM.41 13.41L6 19l1.41-1.41L1.83 12 .41 13.41z" fill-rule="evenodd"/></symbol><symbol id="checkbox" viewBox="0 0 18 19"><title>icon/18/icon-checkbox</title><rect stroke="#979797" x="2" y="2" width="13.5" height="13.5" rx="3" fill-rule="evenodd"/></symbol><symbol id="close" viewBox="0 0 18 18"><title>Icon/18/icon-close</title><path d="M14.25 4.808L13.193 3.75 9 7.942 4.808 3.75 3.75 4.808 7.942 9 3.75 13.193l1.058 1.057L9 10.057l4.193 4.193 1.057-1.057L10.057 9l4.193-4.192z" fill-rule="evenodd"/></symbol><symbol id="copy" viewBox="0 0 20 20"><title>icon/20/icon-copy</title><path d="M12.356 4.485c-.56-.144-.953-.613-.953-1.197V2.8c0-.994-.802-1.8-1.792-1.8h-.035c-.99 0-1.79.806-1.79 1.8v.493c0 .58-.39 1.048-.947 1.195-.727.19-1.263.894-1.263 1.685v.022a.53.53 0 0 0 .53.532h6.992a.53.53 0 0 0 .53-.532v-.022c0-.793-.54-1.5-1.27-1.688zm-.693 9.606c0 .453-.335.82-.75.82H6.775c-.413 0-.75-.367-.75-.82 0-.45.337-.817.75-.817h4.136c.416 0 .75.367.75.818zm1.61-4.908c0 .452-.286.818-.64.818H6.666c-.352 0-.64-.366-.64-.818 0-.452.288-.818.64-.818h5.97c.352 0 .64.366.64.818zm0 2.454c0 .452-.286.82-.64.82H6.666c-.352 0-.64-.368-.64-.82 0-.45.288-.818.64-.818h5.97c.352 0 .64.367.64.818zm-.338-9.818v.84c0 .406.34.735.76.735h1.46a.5.5 0 0 1 .51.492v13.05a.5.5 0 0 1-.51.492H4.146a.5.5 0 0 1-.508-.492V3.885a.5.5 0 0 1 .508-.492h1.46c.42 0 .76-.33.76-.735v-.84H3.17c-.647 0-1.17.506-1.17 1.13V17.87c0 .625.523 1.13 1.17 1.13h12.96c.647 0 1.17-.505 1.17-1.13V2.948c0-.623-.523-1.13-1.17-1.13h-3.195z" fill-rule="evenodd"/></symbol><symbol id="delete" viewBox="0 0 18 19"><title>icon/18/icon-delete</title><path d="M4.917 14.89c0 .467.687 1.11 1.146 1.11h6.875c.458 0 1.145-.643 1.145-1.11V6H4.917v8.89zM15 3.464h-2.444L11.333 2H7.667L6.444 3.465H4V4.93h11V3.465z" fill-rule="evenodd"/></symbol><symbol id="down" viewBox="0 0 24 24"><title>icon/24/icon-down</title><path d="M11.406 16.594l.594.595.594-.596L21 8.19 19.81 7l-8.404 8.406h1.188L4.19 7 3 8.19l8.406 8.404z" fill-rule="evenodd"/></symbol><symbol id="duplicate" viewBox="0 0 18 18"><title>icon/18/icon-duplicate</title><path d="M13.667 4H6.333C5.6 4 5 4.6 5 5.333v9.334C5 15.4 5.6 16 6.333 16h7.334C14.4 16 15 15.4 15 14.667V5.333C15 4.6 14.4 4 13.667 4zM6 5h8v10H6V5zm-1.966 8.966A1.34 1.34 0 0 1 3 12.666V3.334C3 2.6 3.6 2 4.333 2h7.334c.63 0 1.162.444 1.3 1.034a1.325 1.325 0 0 0-.3-.034H4v10.667c0 .102.012.203.034.3z" fill-rule="evenodd"/></symbol><symbol id="edit" viewBox="0 0 18 18"><title>icon/18/icon-edit</title><path d="M2.25 12.938v2.812h2.812l8.294-8.294-2.812-2.812-8.294 8.294zM15.53 5.28a.747.747 0 0 0 0-1.056L13.777 2.47a.747.747 0 0 0-1.057 0L11.345 3.84l2.812 2.812L15.53 5.28z" fill-rule="evenodd"/></symbol><symbol id="enlarge" viewBox="0 0 18 18"><title>icon/18/icon-enlarge</title><path d="M11.657 9.97h-.597l-.212-.195a4.496 4.496 0 0 0 1.187-3.03c0-2.572-2.2-4.657-4.915-4.657S2.204 4.173 2.204 6.745s2.2 4.657 4.916 4.657a5.056 5.056 0 0 0 3.198-1.125l.205.2v.566l3.78 3.575 1.127-1.067-3.773-3.58zm-4.537 0c-1.883 0-3.403-1.44-3.403-3.225 0-1.784 1.52-3.224 3.403-3.224s3.403 1.44 3.403 3.225c0 1.784-1.52 3.224-3.403 3.224zm-.65-3.705H4.41V7.34h2.06v1.535h1.42V7.34h2.03V6.265H7.89V4.7H6.47v1.565z" fill-rule="evenodd"/></symbol><symbol id="eye" viewBox="0 0 28 28"><title>icon/28/icon-eye</title><path d="M14 5.25C8.167 5.25 3.185 8.878 1.167 14c2.018 5.122 7 8.75 12.833 8.75S24.815 19.122 26.833 14c-2.018-5.122-7-8.75-12.833-8.75zm0 14.583A5.835 5.835 0 0 1 8.167 14 5.835 5.835 0 0 1 14 8.167 5.835 5.835 0 0 1 19.833 14 5.835 5.835 0 0 1 14 19.833zm0-9.333a3.495 3.495 0 0 0-3.5 3.5c0 1.937 1.563 3.5 3.5 3.5s3.5-1.563 3.5-3.5-1.563-3.5-3.5-3.5z" fill-rule="evenodd"/></symbol><symbol id="fold" viewBox="0 0 28 28"><title>icon/28/icon-fold</title><path d="M17.978 8.645L16.333 7l-7 7 7 7 1.645-1.645L12.635 14l5.343-5.355z" fill-rule="evenodd"/></symbol><symbol id="graph" viewBox="0 0 24 24"><title>icon/24/icon-graph</title><path d="M19 3H5c-1.1 0-2 .9-2 2v14c0 1.1.9 2 2 2h14c1.1 0 2-.9 2-2V5c0-1.1-.9-2-2-2zM9 17H7v-7h2v7zm4 0h-2V7h2v10zm4 0h-2v-4h2v4z" fill-rule="evenodd"/></symbol><symbol id="grid-1" viewBox="0 0 18 19"><title>icon/18/icon-grid-1</title><path d="M1 1h16v16H1z" fill-rule="evenodd"/></symbol><symbol id="grid-16" viewBox="0 0 18 19"><title>icon/18/icon-grid-16</title><path d="M1 9.89h3.667v3.666H1V9.89zm4.444 0H9.11v3.666H5.445V9.89zm4.445 0h3.666v3.666H9.89V9.89zm4.443 0H18v3.666h-3.667V9.89zM1 14.332h3.667V18H1v-3.667zm4.444 0H9.11V18H5.445v-3.667zm4.445 0h3.666V18H9.89v-3.667zm4.443 0H18V18h-3.667v-3.667zM1 5.443h3.667v3.668H1V5.445zm4.444 0H9.11v3.668H5.445V5.445zm4.445 0h3.666v3.668H9.89V5.445zm4.443 0H18v3.668h-3.667V5.445zM1 1h3.667v3.667H1V1zm4.444 0H9.11v3.667H5.445V1zM9.89 1h3.666v3.667H9.89V1zm4.443 0H18v3.667h-3.667V1z" fill-rule="evenodd"/></symbol><symbol id="grid-4" viewBox="0 0 18 19"><title>icon/18/icon-grid-4</title><path d="M1 1h7.556v7.55H1V1zm0 9.444h7.556v7.552H1v-7.552zM10.444 1H18v7.55h-7.556V1zm0 9.444H18v7.552h-7.556v-7.552z" fill-rule="evenodd"/></symbol><symbol id="grid-9" viewBox="0 0 18 19"><title>icon/18/icon-grid-9</title><path d="M1 13h5v4.86H1V13zm0-6h5v4.86H1V7zm0-6h5v4.86H1V1zm6 12h5v4.86H7V13zm0-6h5v4.86H7V7zm0-6h5v4.86H7V1zm6 12h5v4.86h-5V13zm0-6h5v4.86h-5V7zm0-6h5v4.86h-5V1z" fill-rule="evenodd"/></symbol><symbol id="health" viewBox="0 0 24 24"><title>icon/24/health</title><path d="M19 3H5c-1.1 0-1.99.9-1.99 2L3 19c0 1.1.9 2 2 2h14c1.1 0 2-.9 2-2V5c0-1.1-.9-2-2-2zm-1 11h-4v4h-4v-4H6v-4h4V6h4v4h4v4z" fill-rule="evenodd"/></symbol><symbol id="hg" viewBox="0 0 28 28"><title>icon/28/icon-hg</title><path d="M2.333 23.333h23.334v-4.666H2.333v4.666zm2.334-3.5H7v2.334H4.667v-2.334zM2.333 4.667v4.666h23.334V4.667H2.333zM7 8.167H4.667V5.833H7v2.334zm-4.667 8.166h23.334v-4.666H2.333v4.666zm2.334-3.5H7v2.334H4.667v-2.334z" fill-rule="evenodd"/></symbol><symbol id="legend" viewBox="0 0 18 18"><title>icon/18/icon-legend</title><path d="M2.94 7.715a1.1 1.1 0 0 0-1.103 1.102A1.1 1.1 0 0 0 2.94 9.92a1.1 1.1 0 0 0 1.1-1.103 1.1 1.1 0 0 0-1.1-1.102zm0-4.408A1.1 1.1 0 0 0 1.836 4.41a1.1 1.1 0 0 0 1.102 1.1 1.1 1.1 0 0 0 1.1-1.1 1.1 1.1 0 0 0-1.1-1.103zm0 8.942a.977.977 0 1 0-.002 1.952.977.977 0 0 0 0-1.953zm2.203 1.71H15.43v-1.47H5.143v1.47zm0-4.408H15.43v-1.47H5.143v1.47zm0-5.878v1.47H15.43v-1.47H5.143z" fill-rule="evenodd"/></symbol><symbol id="minimize" viewBox="0 0 18 18"><title>icon/18/icon-minimize</title><path d="M11.657 10.523h-.597l-.212-.205a4.894 4.894 0 0 0 1.187-3.198 4.915 4.915 0 1 0-4.915 4.915 4.894 4.894 0 0 0 3.198-1.187l.205.212v.597l3.78 3.773 1.127-1.126-3.773-3.78zm-4.537 0A3.398 3.398 0 0 1 3.717 7.12 3.398 3.398 0 0 1 7.12 3.717a3.398 3.398 0 0 1 3.403 3.403 3.398 3.398 0 0 1-3.403 3.403zm-2.16-3.91h4.408v1.134H4.96V6.613z" fill-rule="evenodd"/></symbol><symbol id="more" viewBox="0 0 24 24"><title>icon/24/icon-more</title><path d="M12 8c1.1 0 2-.9 2-2s-.9-2-2-2-2 .9-2 2 .9 2 2 2zm0 2c-1.1 0-2 .9-2 2s.9 2 2 2 2-.9 2-2-.9-2-2-2zm0 6c-1.1 0-2 .9-2 2s.9 2 2 2 2-.9 2-2-.9-2-2-2z" fill-rule="evenodd"/></symbol><symbol id="open-in-new" viewBox="0 0 20 20"><title>icon/20/icon-open-in-new</title><path d="M17 17H3V3h7V1H3a2 2 0 0 0-2 2v14a2 2 0 0 0 2 2h14c1.1 0 2-.9 2-2v-7h-2v7zM12 1v2h3.59l-9.83 9.83 1.41 1.41L17 4.41V8h2V1h-7z" fill-rule="evenodd"/></symbol><symbol id="plus" viewBox="0 0 18 18"><title>Icon/18/icon-plus</title><path d="M14.76 10.152H10.15v4.607H7.848V10.15H3.24V7.848H7.85V3.24h2.304V7.85h4.607v2.304z" fill-rule="evenodd"/></symbol><symbol id="search" viewBox="0 0 24 24"><title>icon/24/icon-search</title><path d="M15.507 14.006h-.79l-.28-.27a6.475 6.475 0 0 0 1.57-4.232 6.504 6.504 0 1 0-6.503 6.503c1.61 0 3.09-.59 4.232-1.57l.27.28v.79L19.01 20.5l1.49-1.49-4.993-5.004zm-6.003 0A4.497 4.497 0 0 1 5 9.504C5 7.012 7.013 5 9.505 5c2.49 0 4.502 2.012 4.502 4.504 0 2.49-2.01 4.502-4.502 4.502z" fill-rule="evenodd"/></symbol><symbol id="settings" viewBox="0 0 24 24"><title>icon/24/icon-settings</title><path d="M18.113 13.03a6.41 6.41 0 0 0 .057-.806c0-.28-.025-.542-.057-.806l1.735-1.357a.415.415 0 0 0 .1-.525L18.3 6.69a.413.413 0 0 0-.502-.182l-2.048.823a6.01 6.01 0 0 0-1.39-.805l-.312-2.18A.4.4 0 0 0 13.647 4h-3.29a.4.4 0 0 0-.403.345l-.313 2.18a6.32 6.32 0 0 0-1.39.806L6.205 6.51a.4.4 0 0 0-.502.18L4.057 9.536a.405.405 0 0 0 .1.526L5.89 11.42a6.522 6.522 0 0 0-.057.806c0 .272.025.543.058.806l-1.734 1.357a.415.415 0 0 0-.1.527l1.646 2.845c.1.18.32.246.502.18l2.047-.822c.43.33.89.6 1.39.806l.314 2.18a.4.4 0 0 0 .403.345h3.29a.4.4 0 0 0 .403-.347l.312-2.18a6.32 6.32 0 0 0 1.39-.805l2.048.822a.4.4 0 0 0 .502-.18l1.645-2.846a.415.415 0 0 0-.1-.527l-1.734-1.357zm-6.11 2.073a2.882 2.882 0 0 1-2.88-2.88c0-1.586 1.292-2.877 2.88-2.877 1.586 0 2.877 1.29 2.877 2.878s-1.29 2.88-2.878 2.88z" fill-rule="evenodd"/></symbol><symbol id="sort" viewBox="0 0 18 18"><title>icon/18/icon-sort</title><path d="M9.5 3L13 8H6l3.5-5zM6 11h7l-3.5 5L6 11z" fill-rule="evenodd"/></symbol><symbol id="sum" viewBox="0 0 18 18"><title>icon/18/icon-sum</title><path d="M13.226 3.307H4.41v1.47l4.775 4.408-4.776 4.408v1.47h8.816V12.86H8.083l3.673-3.675L8.083 5.51h5.143V3.308z" fill-rule="evenodd"/></symbol><symbol id="sync" viewBox="0 0 24 24"><title>icon/24/sync</title><path d="M10.837 3.774a.662.662 0 0 0 .613-.66v-1.26c0-.292.323-.457.55-.282l3.745 2.91a.67.67 0 0 1 0 1.052L12 8.454c-.226.177-.55.01-.55-.28V7.01c0-.406-.353-.72-.744-.66-2.74.427-4.747 3.146-4.12 6.2.125.613.365 1.186.694 1.698a1.27 1.27 0 0 1-.316 1.702l-.02.014c-.546.398-1.322.286-1.693-.286A7.79 7.79 0 0 1 4 11.428c0-4.025 3.008-7.327 6.837-7.654zm2.326 16.452a.662.662 0 0 0-.613.66v1.26c0 .292-.323.457-.55.282l-3.745-2.91a.67.67 0 0 1 0-1.052L12 15.546c.226-.177.55-.01.55.28v1.164c0 .406.353.72.744.66 2.74-.427 4.747-3.146 4.12-6.2a4.995 4.995 0 0 0-.694-1.698 1.27 1.27 0 0 1 .316-1.702l.02-.014c.546-.398 1.322-.286 1.693.286a7.79 7.79 0 0 1 1.25 4.25c0 4.025-3.008 7.327-6.837 7.654z" fill-rule="evenodd"/></symbol><symbol id="triangle" viewBox="0 0 18 18"><title>icon/18/icon-triangle</title><path d="M4 7l5 6 5-6H4z" fill-rule="evenodd"/></symbol><symbol id="up" viewBox="0 0 24 24"><title>icon/24/icon-up</title><path d="M11.406 7.406L12 6.81l.594.596L21 15.81 19.81 17l-8.404-8.406h1.188L4.19 17 3 15.81l8.406-8.404z" fill-rule="evenodd"/></symbol><symbol id="userg" viewBox="0 0 28 28"><title>icon/28/icon-userg</title><path d="M18.667 12.833a3.485 3.485 0 0 0 3.488-3.5c0-1.936-1.552-3.5-3.488-3.5a3.495 3.495 0 0 0-3.5 3.5c0 1.937 1.563 3.5 3.5 3.5zm-9.334 0a3.485 3.485 0 0 0 3.49-3.5c0-1.936-1.553-3.5-3.49-3.5a3.495 3.495 0 0 0-3.5 3.5c0 1.937 1.564 3.5 3.5 3.5zm0 2.334c-2.718 0-8.166 1.365-8.166 4.083v2.917H17.5V19.25c0-2.718-5.448-4.083-8.167-4.083zm9.334 0c-.34 0-.724.023-1.132.058 1.353.98 2.298 2.298 2.298 4.025v2.917h7V19.25c0-2.718-5.448-4.083-8.166-4.083z" fill-rule="evenodd"/></symbol><symbol id="level-1" viewBox="0 0 40 40"><title>icon/40/level-1</title><path fill="#E31B33" d="M0 0h40v40H0z" fill-rule="evenodd"/></symbol><symbol id="level-2" viewBox="0 0 40 40"><title>icon/40/level-2</title><g fill="none" fill-rule="evenodd"><path d="M40 0v40H0L40 0z" fill="#E31B33"/><path fill="#E31B33" d="M0 0h40v40H0z"/><path d="M0 40V0h40L0 40z" stroke="#E31B33" fill="#FFF"/></g></symbol><symbol id="level-3" viewBox="0 0 40 40"><title>icon/40/level-3</title><path fill="#FF8C1A" d="M0 0h40v40H0z" fill-rule="evenodd"/></symbol><symbol id="level-4" viewBox="0 0 40 40"><title>icon/40/level-4</title><g fill="none" fill-rule="evenodd"><path d="M40 0v40H0L40 0z" fill="#FF8C19"/><path fill="#FF8C1A" d="M0 0h40v40H0z"/><path d="M0 40V0h40L0 40z" stroke="#FF8C1A" fill="#FFF"/></g></symbol><symbol id="level-5" viewBox="0 0 40 40"><title>icon/40/level-5</title><path fill="#FFD919" d="M0 0h40v40H0z" fill-rule="evenodd"/></symbol><symbol id="level-6" viewBox="0 0 40 40"><title>icon/40/level-6</title><g fill="none" fill-rule="evenodd"><path d="M40 0v40H0L40 0z" fill="#FFD919"/><path fill="#FFD919" d="M0 0h40v40H0z"/><path d="M0 40V0h40L0 40z" stroke="#FFD919" fill="#FFF"/></g></symbol><symbol id="level-all" viewBox="0 0 18 18"><title>icon/18/level-all</title><path fill="#383387" d="M0 0h18v18H0z" fill-rule="evenodd"/></symbol><symbol id="switch-off" viewBox="0 0 40 40"><title>icon/40/switch-off</title><g fill="none" fill-rule="evenodd"><rect fill="#E9E9E9" x="5" y="13" width="30" height="14" rx="16"/><rect fill="#8D8D8D" x="5" y="13" width="14" height="14" rx="7"/></g></symbol><symbol id="switch-on" viewBox="0 0 40 40"><title>icon/40/switch-on</title><g fill="none" fill-rule="evenodd"><rect fill="#E9E9E9" x="5" y="13" width="30" height="14" rx="16"/><rect fill="#FFD919" x="21" y="13" width="14" height="14" rx="16"/></g></symbol></svg>